<svg width="60" height="30" viewBox="0 0 60 30" fill="none" xmlns="http://www.w3.org/2000/svg">
<rect width="60" height="30" rx="3" fill="#6F64F8"/>
<path d="M19.058 17.424H17.098V20H16.09V17.424H10.56V16.696L15.754 10.2H16.874L11.862 16.528H16.118V14.26H17.098V16.528H19.058V17.424ZM21.0133 20.07C20.808 20.07 20.6306 19.9953 20.4813 19.846C20.3413 19.6967 20.2713 19.5147 20.2713 19.3C20.2713 19.0853 20.3413 18.908 20.4813 18.768C20.6306 18.6187 20.808 18.544 21.0133 18.544C21.2186 18.544 21.396 18.6187 21.5453 18.768C21.6946 18.908 21.7693 19.0853 21.7693 19.3C21.7693 19.5147 21.6946 19.6967 21.5453 19.846C21.396 19.9953 21.2186 20.07 21.0133 20.07ZM25.8001 14.218C27.2188 14.218 28.2501 14.4747 28.8941 14.988C29.5474 15.492 29.8741 16.2013 29.8741 17.116C29.8741 17.6853 29.7388 18.194 29.4681 18.642C29.2068 19.09 28.8101 19.4447 28.2781 19.706C27.7461 19.958 27.0928 20.084 26.3181 20.084C25.6181 20.084 24.9508 19.972 24.3161 19.748C23.6908 19.5147 23.1868 19.2067 22.8041 18.824L23.2941 18.026C23.6208 18.362 24.0501 18.6373 24.5821 18.852C25.1141 19.0573 25.6881 19.16 26.3041 19.16C27.1161 19.16 27.7414 18.978 28.1801 18.614C28.6281 18.25 28.8521 17.7647 28.8521 17.158C28.8521 16.486 28.6001 15.9773 28.0961 15.632C27.6014 15.2867 26.7614 15.114 25.5761 15.114H23.4901L23.9941 10.2H29.3561V11.096H24.8761L24.5401 14.218H25.8001Z" fill="white"/>
<path fill-rule="evenodd" clip-rule="evenodd" d="M43.5 9L45.354 12.9495L49.5 13.5868L46.5 16.6593L47.208 21L43.5 18.9495L39.792 21L40.5 16.6593L37.5 13.5868L41.646 12.9495L43.5 9V9Z" stroke="white" stroke-linecap="round" stroke-linejoin="round"/>
</svg>
