<svg width="185" height="45" viewBox="0 0 185 45" fill="none" xmlns="http://www.w3.org/2000/svg">
<path d="M0 0H185V37C185 41.4183 181.418 45 177 45H0V0Z" fill="#6F64F8"/>
<path d="M61.672 25.732H56.772L55.806 28H53.93L58.34 18.2H60.132L64.556 28H62.652L61.672 25.732ZM61.07 24.304L59.222 20.02L57.388 24.304H61.07ZM65.8023 18.2H70.0863C71.1317 18.2 72.0603 18.4053 72.8723 18.816C73.6843 19.2173 74.3143 19.7913 74.7623 20.538C75.2103 21.2753 75.4343 22.1293 75.4343 23.1C75.4343 24.0707 75.2103 24.9293 74.7623 25.676C74.3143 26.4133 73.6843 26.9873 72.8723 27.398C72.0603 27.7993 71.1317 28 70.0863 28H65.8023V18.2ZM70.0023 26.46C70.721 26.46 71.351 26.3247 71.8923 26.054C72.443 25.774 72.863 25.382 73.1523 24.878C73.451 24.3647 73.6003 23.772 73.6003 23.1C73.6003 22.428 73.451 21.84 73.1523 21.336C72.863 20.8227 72.443 20.4307 71.8923 20.16C71.351 19.88 70.721 19.74 70.0023 19.74H67.6223V26.46H70.0023ZM77.3687 18.2H81.6527C82.6981 18.2 83.6267 18.4053 84.4387 18.816C85.2507 19.2173 85.8807 19.7913 86.3287 20.538C86.7767 21.2753 87.0007 22.1293 87.0007 23.1C87.0007 24.0707 86.7767 24.9293 86.3287 25.676C85.8807 26.4133 85.2507 26.9873 84.4387 27.398C83.6267 27.7993 82.6981 28 81.6527 28H77.3687V18.2ZM81.5687 26.46C82.2874 26.46 82.9174 26.3247 83.4587 26.054C84.0094 25.774 84.4294 25.382 84.7187 24.878C85.0174 24.3647 85.1667 23.772 85.1667 23.1C85.1667 22.428 85.0174 21.84 84.7187 21.336C84.4294 20.8227 84.0094 20.4307 83.4587 20.16C82.9174 19.88 82.2874 19.74 81.5687 19.74H79.1887V26.46H81.5687ZM94.7923 19.74H91.5443V18.2H99.8603V19.74H96.6123V28H94.7923V19.74ZM105.667 28.14C104.669 28.14 103.768 27.9253 102.965 27.496C102.163 27.0573 101.533 26.4553 101.075 25.69C100.618 24.9153 100.389 24.052 100.389 23.1C100.389 22.148 100.618 21.2893 101.075 20.524C101.533 19.7493 102.163 19.1473 102.965 18.718C103.768 18.2793 104.669 18.06 105.667 18.06C106.666 18.06 107.567 18.2793 108.369 18.718C109.172 19.1473 109.802 19.7447 110.259 20.51C110.717 21.2753 110.945 22.1387 110.945 23.1C110.945 24.0613 110.717 24.9247 110.259 25.69C109.802 26.4553 109.172 27.0573 108.369 27.496C107.567 27.9253 106.666 28.14 105.667 28.14ZM105.667 26.544C106.321 26.544 106.909 26.3993 107.431 26.11C107.954 25.8113 108.365 25.4007 108.663 24.878C108.962 24.346 109.111 23.7533 109.111 23.1C109.111 22.4467 108.962 21.8587 108.663 21.336C108.365 20.804 107.954 20.3933 107.431 20.104C106.909 19.8053 106.321 19.656 105.667 19.656C105.014 19.656 104.426 19.8053 103.903 20.104C103.381 20.3933 102.97 20.804 102.671 21.336C102.373 21.8587 102.223 22.4467 102.223 23.1C102.223 23.7533 102.373 24.346 102.671 24.878C102.97 25.4007 103.381 25.8113 103.903 26.11C104.426 26.3993 105.014 26.544 105.667 26.544ZM121.28 28.14C120.29 28.14 119.394 27.9253 118.592 27.496C117.798 27.0573 117.173 26.4553 116.716 25.69C116.268 24.9247 116.044 24.0613 116.044 23.1C116.044 22.1387 116.272 21.2753 116.73 20.51C117.187 19.7447 117.812 19.1473 118.606 18.718C119.408 18.2793 120.304 18.06 121.294 18.06C122.096 18.06 122.829 18.2 123.492 18.48C124.154 18.76 124.714 19.166 125.172 19.698L123.996 20.804C123.286 20.0387 122.414 19.656 121.378 19.656C120.706 19.656 120.104 19.8053 119.572 20.104C119.04 20.3933 118.624 20.7993 118.326 21.322C118.027 21.8447 117.878 22.4373 117.878 23.1C117.878 23.7627 118.027 24.3553 118.326 24.878C118.624 25.4007 119.04 25.8113 119.572 26.11C120.104 26.3993 120.706 26.544 121.378 26.544C122.414 26.544 123.286 26.1567 123.996 25.382L125.172 26.502C124.714 27.034 124.15 27.44 123.478 27.72C122.815 28 122.082 28.14 121.28 28.14ZM133.067 25.732H128.167L127.201 28H125.325L129.735 18.2H131.527L135.951 28H134.047L133.067 25.732ZM132.465 24.304L130.617 20.02L128.783 24.304H132.465ZM143.609 28L141.607 25.13C141.523 25.1393 141.397 25.144 141.229 25.144H139.017V28H137.197V18.2H141.229C142.078 18.2 142.816 18.34 143.441 18.62C144.076 18.9 144.561 19.3013 144.897 19.824C145.233 20.3467 145.401 20.9673 145.401 21.686C145.401 22.4233 145.219 23.058 144.855 23.59C144.5 24.122 143.987 24.5187 143.315 24.78L145.569 28H143.609ZM143.567 21.686C143.567 21.0607 143.362 20.58 142.951 20.244C142.54 19.908 141.938 19.74 141.145 19.74H139.017V23.646H141.145C141.938 23.646 142.54 23.478 142.951 23.142C143.362 22.7967 143.567 22.3113 143.567 21.686ZM149.288 19.74H146.04V18.2H154.356V19.74H151.108V28H149.288V19.74Z" fill="white"/>
<path opacity="0.737212" fill-rule="evenodd" clip-rule="evenodd" d="M29.6667 13L27 16.6V29.2C27 30.1941 27.7959 31 28.7778 31H41.2222C42.2041 31 43 30.1941 43 29.2V16.6L40.3333 13H29.6667Z" stroke="white" stroke-width="2" stroke-linecap="round" stroke-linejoin="round"/>
<path opacity="0.737212" d="M27 17.5H43" stroke="white" stroke-width="2" stroke-linecap="round" stroke-linejoin="round"/>
<path opacity="0.737212" d="M39 21C39 22.6569 37.433 24 35.5 24C33.567 24 32 22.6569 32 21" stroke="white" stroke-width="2" stroke-linecap="round" stroke-linejoin="round"/>
</svg>
