<svg width="186" height="45" viewBox="0 0 186 45" fill="none" xmlns="http://www.w3.org/2000/svg">
<path d="M0 0H186V45H8C3.58173 45 0 41.4183 0 37V0Z" fill="#EDEDED"/>
<path fill-rule="evenodd" clip-rule="evenodd" d="M57.9205 18.1493C57.2296 17.4134 56.2924 17 55.3151 17C54.3378 17 53.4006 17.4134 52.7098 18.1493L51.9998 18.9051L51.2899 18.1493C49.851 16.6174 47.5181 16.6174 46.0792 18.1493C44.6403 19.6812 44.6403 22.1649 46.0792 23.6967L46.7891 24.4526L51.9998 30L57.2105 24.4526L57.9205 23.6967C58.6117 22.9612 59 21.9634 59 20.923C59 19.8826 58.6117 18.8848 57.9205 18.1493Z" stroke="black" stroke-width="2" stroke-linecap="round" stroke-linejoin="round"/>
<path d="M82.638 18.2L79.39 28H77.458L75.036 20.748L72.572 28H70.626L67.378 18.2H69.268L71.704 25.648L74.238 18.2H75.918L78.396 25.69L80.902 18.2H82.638ZM84.1207 18.2H85.9407V28H84.1207V18.2ZM91.6294 28.14C90.8734 28.14 90.1407 28.0327 89.4314 27.818C88.7314 27.6033 88.1761 27.3187 87.7654 26.964L88.3954 25.55C88.7967 25.8673 89.2867 26.1287 89.8654 26.334C90.4534 26.53 91.0414 26.628 91.6294 26.628C92.3574 26.628 92.8987 26.5113 93.2534 26.278C93.6174 26.0447 93.7994 25.7367 93.7994 25.354C93.7994 25.074 93.6967 24.8453 93.4914 24.668C93.2954 24.4813 93.0434 24.3367 92.7354 24.234C92.4274 24.1313 92.0074 24.0147 91.4754 23.884C90.7287 23.7067 90.1221 23.5293 89.6554 23.352C89.1981 23.1747 88.8014 22.8993 88.4654 22.526C88.1387 22.1433 87.9754 21.63 87.9754 20.986C87.9754 20.4447 88.1201 19.9547 88.4094 19.516C88.7081 19.068 89.1514 18.7133 89.7394 18.452C90.3367 18.1907 91.0647 18.06 91.9234 18.06C92.5207 18.06 93.1087 18.1347 93.6874 18.284C94.2661 18.4333 94.7654 18.648 95.1854 18.928L94.6114 20.342C94.1821 20.09 93.7341 19.8987 93.2674 19.768C92.8007 19.6373 92.3481 19.572 91.9094 19.572C91.1907 19.572 90.6541 19.6933 90.2994 19.936C89.9541 20.1787 89.7814 20.5007 89.7814 20.902C89.7814 21.182 89.8794 21.4107 90.0754 21.588C90.2807 21.7653 90.5374 21.9053 90.8454 22.008C91.1534 22.1107 91.5734 22.2273 92.1054 22.358C92.8334 22.526 93.4307 22.7033 93.8974 22.89C94.3641 23.0673 94.7607 23.3427 95.0874 23.716C95.4234 24.0893 95.5914 24.5933 95.5914 25.228C95.5914 25.7693 95.4421 26.2593 95.1434 26.698C94.8541 27.1367 94.4107 27.4867 93.8134 27.748C93.2161 28.0093 92.4881 28.14 91.6294 28.14ZM106.104 18.2V28H104.284V23.8H99.2161V28H97.3961V18.2H99.2161V22.246H104.284V18.2H106.104ZM108.73 18.2H110.55V26.46H115.674V28H108.73V18.2ZM117.111 18.2H118.931V28H117.111V18.2ZM124.62 28.14C123.864 28.14 123.131 28.0327 122.422 27.818C121.722 27.6033 121.166 27.3187 120.756 26.964L121.386 25.55C121.787 25.8673 122.277 26.1287 122.856 26.334C123.444 26.53 124.032 26.628 124.62 26.628C125.348 26.628 125.889 26.5113 126.244 26.278C126.608 26.0447 126.79 25.7367 126.79 25.354C126.79 25.074 126.687 24.8453 126.482 24.668C126.286 24.4813 126.034 24.3367 125.726 24.234C125.418 24.1313 124.998 24.0147 124.466 23.884C123.719 23.7067 123.112 23.5293 122.646 23.352C122.188 23.1747 121.792 22.8993 121.456 22.526C121.129 22.1433 120.966 21.63 120.966 20.986C120.966 20.4447 121.11 19.9547 121.4 19.516C121.698 19.068 122.142 18.7133 122.73 18.452C123.327 18.1907 124.055 18.06 124.914 18.06C125.511 18.06 126.099 18.1347 126.678 18.284C127.256 18.4333 127.756 18.648 128.176 18.928L127.602 20.342C127.172 20.09 126.724 19.8987 126.258 19.768C125.791 19.6373 125.338 19.572 124.9 19.572C124.181 19.572 123.644 19.6933 123.29 19.936C122.944 20.1787 122.772 20.5007 122.772 20.902C122.772 21.182 122.87 21.4107 123.066 21.588C123.271 21.7653 123.528 21.9053 123.836 22.008C124.144 22.1107 124.564 22.2273 125.096 22.358C125.824 22.526 126.421 22.7033 126.888 22.89C127.354 23.0673 127.751 23.3427 128.078 23.716C128.414 24.0893 128.582 24.5933 128.582 25.228C128.582 25.7693 128.432 26.2593 128.134 26.698C127.844 27.1367 127.401 27.4867 126.804 27.748C126.206 28.0093 125.478 28.14 124.62 28.14ZM132.238 19.74H128.99V18.2H137.306V19.74H134.058V28H132.238V19.74Z" fill="#2C2C2C"/>
</svg>
